<?xml version="1.0" encoding="UTF-8"?>
<svg xmlns="http://www.w3.org/2000/svg" width="960" height="540" viewBox="0 0 960 540">
  <rect width="960" height="540" fill="#111"/>
  <text x="24" y="36" fill="#eee" font-family="system-ui,sans-serif" font-size="18">DemoLab  Monitoring Lab (wireframe, not a real capture)</text>
  <rect x="16" y="56" width="200" height="120" rx="6" fill="#1e1e1e" stroke="#333"/>
  <text x="32" y="96" fill="#9cf" font-family="system-ui,sans-serif" font-size="14">probe_success</text>
  <text x="32" y="124" fill="#6f6" font-family="system-ui,sans-serif" font-size="22">1</text>
  <rect x="232" y="56" width="200" height="120" rx="6" fill="#1e1e1e" stroke="#333"/>
  <text x="248" y="96" fill="#9cf" font-family="system-ui,sans-serif" font-size="14">Prometheus UP</text>
  <text x="248" y="124" fill="#6f6" font-family="system-ui,sans-serif" font-size="22">1</text>
  <rect x="448" y="56" width="200" height="120" rx="6" fill="#1e1e1e" stroke="#333"/>
  <text x="464" y="96" fill="#9cf" font-family="system-ui,sans-serif" font-size="14">Alertmanager UP</text>
  <text x="464" y="124" fill="#6f6" font-family="system-ui,sans-serif" font-size="22">1</text>
  <rect x="16" y="200" width="928" height="300" rx="6" fill="#1a1a1a" stroke="#333"/>
  <text x="32" y="236" fill="#aaa" font-family="system-ui,sans-serif" font-size="14">Probe duration (timeseries placeholder)</text>
  <polyline fill="none" stroke="#4af" stroke-width="2"
    points="48,440 120,400 200,420 280,360 360,380 440,340 520,350 600,310 680,330 760,300 840,320 912,280"/>
</svg>
